<svg xmlns="http://www.w3.org/2000/svg" viewBox="0 0 500 500" xml:space="preserve">
  <path fill="currentColor" d="M489.1 89.6c-78.3-31.5-161.2-31-239.3 1.4-78.1-32.4-161.1-32.9-239.4-1.4-2.1.8-3.6 3.5-3.6 6.6v318.5c0 3.8 2.2 6.9 4.9 6.9.4 0 .9-.1 1.3-.3 77.5-30.5 159.5-29.6 236.7 2.4 77.2-32.1 159.2-32.9 236.7-2.4 2.6 1 5.3-1.1 6-4.8.1-.6.2-1.2.2-1.8V96.3c0-3.1-1.4-5.8-3.5-6.7zm-163.3 59-18.3-9.1 18.3-9.1 9.1-44.2 9.1 44.2 18.3 9.1-18.3 9.1-9.1 44.2-9.1-44.2zm44.3 187.5-7.7 37.3-7.7-37.3-15.4-7.7 15.4-7.7 7.7-37.3 7.7 37.3 15.5 7.7-15.5 7.7zm50.3-112.8-17.5 84.9-17.5-84.9-35.2-17.5 35.2-17.5 17.5-84.9 17.5 84.9 35.2 17.5-35.2 17.5z"/>
</svg>

