<?xml version="1.0" encoding="utf-8"?>
<!-- Generator: Adobe Illustrator 25.2.3, SVG Export Plug-In . SVG Version: 6.00 Build 0)  -->
<svg version="1.1" id="Layer_1" xmlns="http://www.w3.org/2000/svg" xmlns:xlink="http://www.w3.org/1999/xlink" x="0px" y="0px"
	 viewBox="0 0 49.4 35.5" style="enable-background:new 0 0 49.4 35.5;" xml:space="preserve">
<style type="text/css">
	.st0{fill:#242322;}
</style>
<path class="st0" d="M33.7,32.1c1.3,1.6,2.8,3.4,2.8,3.4c9.3-0.3,12.9-6.4,12.9-6.4c0-13.6-6.1-24.7-6.1-24.7
	C37.2-0.1,31.4,0,31.4,0l-0.6,0.7C38,2.9,41.4,6,41.4,6C37,3.6,32.6,2.5,28.6,2c-3-0.3-6-0.3-8.5,0.1c-0.3,0-0.5,0-0.7,0.1
	c-1.5,0.1-5.1,0.7-9.6,2.7C8.2,5.5,7.3,6,7.3,6s3.5-3.3,11.1-5.5L18,0c0,0-5.8-0.1-11.9,4.4c0,0-6.1,11-6.1,24.7
	c0,0,3.6,6.1,12.9,6.4c0,0,1.6-1.9,2.8-3.5c-5.4-1.6-7.4-5-7.4-5s0.4,0.3,1.2,0.7c0,0,0.1,0.1,0.2,0.1c0.1,0.1,0.3,0.1,0.4,0.2
	c1.1,0.6,2.1,1.1,3.1,1.4c1.7,0.7,3.8,1.4,6.2,1.8c3.2,0.6,6.9,0.8,11,0c2-0.3,4-0.9,6.1-1.8c1.5-0.5,3.1-1.4,4.9-2.5
	C41.3,27.1,39.2,30.5,33.7,32.1z M16.8,25.2c-2.4,0-4.3-2.1-4.3-4.7s1.9-4.7,4.3-4.7c2.4,0,4.4,2.1,4.3,4.7
	C21.1,23,19.2,25.2,16.8,25.2z M32.2,25.2c-2.4,0-4.3-2.1-4.3-4.7s1.9-4.7,4.3-4.7c2.4,0,4.3,2.1,4.3,4.7S34.6,25.2,32.2,25.2z"/>
</svg>
