<svg viewBox="0 0 28 28" xmlns="http://www.w3.org/2000/svg" xml:space="preserve" style="fill-rule:evenodd;clip-rule:evenodd;stroke-linejoin:round;stroke-miterlimit:2">
  <path style="fill:none" d="M172.944-118.918h27.686v27.686h-27.686z" transform="translate(-172.944 118.918)"/>
  <path d="M934.201 329.917c8.122 0 14.716 6.594 14.716 14.716s-6.594 14.716-14.716 14.716-14.716-6.594-14.716-14.716 6.594-14.716 14.716-14.716Zm4.309 12.862v.581l.239 3.793-3.165-2.104-.504-.29-.692 1.198.504.291 3.403 1.69-3.403 1.69-.504.29.692 1.199.504-.29 3.165-2.104-.239 3.793v.581h1.385v-.581l-.239-3.793 3.165 2.104.503.29.693-1.199-.504-.29-3.405-1.69 3.405-1.69.504-.291-.693-1.198-.503.29-3.165 2.104.239-3.793v-.581h-1.385Zm-10.003 0v.581l.239 3.793-3.166-2.104-.503-.29-.693 1.198.504.291 3.405 1.69-3.405 1.69-.504.29.693 1.199.503-.29 3.166-2.104-.239 3.793v.581h1.384v-.581l-.239-3.793 3.166 2.104.503.29.692-1.199-.503-.29-3.404-1.69 3.404-1.69.503-.291-.692-1.198-.503.29-3.166 2.104.239-3.793v-.581h-1.384Zm5.002-8.664v.582l.239 3.792-3.166-2.103-.504-.29-.692 1.199.504.29 3.404 1.69-3.404 1.689-.504.291.692 1.199.504-.291 3.166-2.103-.239 3.793v.581h1.384v-.581l-.239-3.793 3.166 2.103.503.291.692-1.199-.504-.291-3.404-1.689 3.404-1.69.504-.29-.692-1.199-.503.291-3.166 2.103.239-3.793v-.581l-1.384-.001Z" fill="currentColor" transform="translate(-864.943 -310.347) scale(.94068)"/>
</svg>

