<svg version="1.1" id="Layer_1" xmlns="http://www.w3.org/2000/svg" x="0" y="0" viewBox="0 0 50.2 50.2" xml:space="preserve">
  <path fill="currentColor" d="M35.1 0h-20C6.8 0 0 6.8 0 15.1V35c0 8.3 6.8 15.1 15.1 15.1H35c8.3 0 15.1-6.8 15.1-15.1V15.1C50.2 6.8 43.4 0 35.1 0zm10.3 35.1c0 5.7-4.6 10.4-10.4 10.4H15.1c-5.7 0-10.4-4.6-10.4-10.4v-20c0-5.7 4.6-10.4 10.4-10.4H35c5.7 0 10.4 4.6 10.4 10.4v20z"/>
  <path fill="currentColor" d="M25.2 13c-6.8 0-12.4 5.6-12.4 12.4s5.6 12.4 12.4 12.4c6.8 0 12.4-5.6 12.4-12.4S32 13 25.2 13zm0 20.3c-4.4 0-7.9-3.6-7.9-7.9 0-4.4 3.6-7.9 7.9-7.9 4.4 0 7.9 3.6 7.9 7.9 0 4.4-3.6 7.9-7.9 7.9zM38.3 9.2c-1.6 0-2.9 1.3-2.9 2.9s1.3 2.9 2.9 2.9c1.6 0 2.9-1.3 2.9-2.9s-1.3-2.9-2.9-2.9z"/>
</svg>

