<svg xmlns="http://www.w3.org/2000/svg" viewBox="0 0 45.1 40.6">
  <path d="M5.9.3C3.9 1.4 0 5.9 0 7v2c0 2.4 2.3 4.6 4.4 4.6 2.5 0 4.6-2.1 4.6-4.5 0 2.5 2 4.5 4.5 4.5s4.4-2.1 4.4-4.5c0 2.5 2.1 4.5 4.6 4.5 2.5 0 4.6-2.1 4.6-4.5 0 2.5 1.9 4.5 4.4 4.5 2.5 0 4.5-2.1 4.5-4.5 0 2.5 2.1 4.5 4.6 4.5 2.1 0 4.4-2.2 4.4-4.6V7c0-1.2-3.9-5.6-5.9-6.8-6-.2-10.2-.2-16.6-.2C16.2 0 7.6.1 5.9.3zm12 12.1c-.2.4-.5.8-.9 1.1-1 1-2.3 1.5-3.7 1.5-1.4 0-2.7-.5-3.7-1.5-.3-.3-.6-.7-.8-1.1-.2.4-.6.8-.9 1.1-1 1-2.3 1.5-3.7 1.5-.2 0-.4 0-.5-.1-.2 2.1-.2 4.1-.3 5.6v2.2c0 4.4-.4 14.2 1.9 16.6 3.7.9 10.4 1.2 17.2 1.2 6.8 0 13.5-.4 17.2-1.2 2.4-2.4 1.9-12.2 1.9-16.6v-2.2c0-1.5-.1-3.5-.3-5.5h-.4c-1.4 0-2.7-.5-3.7-1.5-.3-.3-.7-.7-.9-1.1-.2.4-.5.8-.8 1.1-1 1-2.3 1.5-3.7 1.5-1.4 0-2.7-.6-3.7-1.5-.3-.3-.6-.7-.9-1.1-.2.4-.5.8-.9 1.1-1 1-2.3 1.5-3.7 1.5h-.1-.1c-1.4 0-2.7-.5-3.7-1.5-.3-.3-.6-.7-.8-1.1zm-3.8 4.9c1.5 0 2.8 0 4.5 1.8 1.3-.1 2.6-.2 4-.2s2.7.1 4 .2c1.6-1.8 3-1.8 4.5-1.8.7 0 3.5 0 5.5 5.5l2.1 7.6c1.6 5.6-.5 5.8-3.1 5.8-3.8-.1-5.9-2.9-5.9-5.7-2.1.3-4.6.5-7 .5-2.5 0-4.9-.2-7-.5 0 2.8-2.1 5.5-5.9 5.7-2.6 0-4.6-.1-3.1-5.8l2.1-7.6c1.8-5.5 4.6-5.5 5.3-5.5zm8.4 4.3s-4 3.7-4.7 5l2.6-.1v2.3c0 .1 1.1.1 2.1 0 1.1 0 2.1.1 2.1 0v-2.3l2.6.1c-.6-1.3-4.7-5-4.7-5z" fill="currentColor"/>
</svg>

