<svg version="1.1" id="Layer_3" xmlns="http://www.w3.org/2000/svg" x="0" y="0" viewBox="0 0 938.3 1528.4" xml:space="preserve">
	<path fill="#252323" d="M215.5 753.7L170.8 738l-50.3-139.4-69.7-8.3s-18.9 6.5-26.3 9.7S0 614.4 0 614.4l42.2 259.2s.9 11.1 2.5 14.8c1.3 3 4.6 5.3 4.6 5.3l223.4 219.7-21.2 136.2 18.2 19.4 1.8 29.1 81.9-3.9-30-53.8 40.6-84 29.5 31.8 22.6 21.5 28.6-90.2 38.5-83.3s69.5 75 72.2 77.8c2.8 2.8 32.5 49.6 32.5 49.6l33.7-6.9 21.9-34.4 43.8 99.2-21 70.4 66.7 9 29.1-86.3-7.4-28.6 105.1-291 54.9-96.5 23.5-319.4s-42.9-36-49.4-38.8c-6.5-2.8-33.7-5.1-33.7-5.1l-38.3 160.2-28.6-41.1L821 406.1l-3.2-204.9s-57.7-43.4-76.2-44.8c-18.5-1.4-30.5 4.6-30.5 4.6l-31.8 166.6-14.8 150.5L606 462l2.8-334.2S591.7 12.9 588 12c-3.7-.9-47.5-12.9-66.9-12s-71.5 26.8-71.5 26.8l-21.2 246 9.5 175.2-51.9 11.3-62.5-163.6 18.2-195.5s-41.1-18-53.1-19.4c-12-1.4-55.4 4.2-55.4 4.2l-67.8 219.2 41.1 243.7-1.8 162 10.8 43.8z"/>
	<path d="M324.6 729.5s112.8-74.8 123.6-77.2c10.7-2.4 81 2.8 121.8 10.4s85.5 28 92.1 32.2c6.6 4.2 94.2 83.4 94.2 83.4l4.5 29.4S648.6 931.3 623 938.5c-25.6 7.3-142.3 18-155.8 15.6s-97.3-58.8-119.4-79.6c-19.7-18.4-54.7-75.5-56.1-81.3-1.4-5.9 32.9-63.7 32.9-63.7z" fill="#e7e7e7"/>
	<ellipse fill="#252323" cx="527.7" cy="803.3" rx="94.4" ry="88"/>
	<g>
		<path fill="#252323" d="M134.1 1338l-12.5 11.4-71.8 152 .7 17.1 21.7 4.4 31.6-26.5h73.4l28.6 25.1 22.4-9.2-.7-23.1-65.5-141.7-10.6-8.5zM513.2 1338l-12.4 11.4-71.8 152 .7 17.1 21.7 4.4 16.4-14.3 20.5-24.2 61.9-1.2 34.8 38.3 22.4-9.2-.7-23.1-65.5-141.7-10.7-8.5zM261.5 1341.5l-5.8 9-4.9 157.4 6.5 15.9 31.4-3.7 3.9-34.6 34.4 16.4 9.5-2.8 24-29.5 11 58.8 29.3-3.4 7.2-9.3-2.8-175.6-12.2-7.1-30.5 2.5-33.9 67.2-24.4-52.7zM627 1341l-1.2 11.8 1.8 151.4 5.1 23.3s32.5-5.1 41.1-9l7.6-43.2 26.8 19.6 15 23.3s32.5 3.9 38.8 2.3l6.2-184.8-23.5-5.8-24 1.4-1.8 47.1-55.2-38.8-36.7 1.4zM933 1344.3s-20.3-4.4-119.8-4.2l-15 11.8-3.2 41.1 2.3 111.9 18.2 12.9 97.4 3.9 15-7.4 6-9.9 2.5-154.8-3.4-5.3zM884.5 1459l-10.2 8.8h-26.8l-1.4-2.1 2.1-59.5 2.8-7.2 33.9-1.2-.4 61.2z"/>
	</g>
</svg>

