<?xml version="1.0" encoding="utf-8"?>
<!-- Generator: Adobe Illustrator 25.2.3, SVG Export Plug-In . SVG Version: 6.00 Build 0)  -->
<svg version="1.1" id="Layer_1" xmlns="http://www.w3.org/2000/svg" xmlns:xlink="http://www.w3.org/1999/xlink" x="0px" y="0px"
	 viewBox="0 0 56.2 44.3" style="enable-background:new 0 0 56.2 44.3;" xml:space="preserve">
<style type="text/css">
	.st0{fill:#242322;}
</style>
<g id="g8dSqs.tif">
	<g>
		<g>
			<path class="st0" d="M50.8,0c0.5,0,1,0,1.5,0c0.7,0.1,1.4,0.4,2,0.8c1,0.8,1.6,1.8,1.8,3.1c0,0.4,0,0.8,0,1.2c0,0.1,0,0.1,0,0.2
				c-0.3,1.7-1.3,2.7-2.8,3.4c-1.7,0.7-3.4,1.4-5.1,2.2c-0.6,0.3-1.2,0.4-1.8,0.4c-0.1,0-0.3,0-0.4,0.1c-1.9,1-3.8,2-5.7,3
				c-0.1,0.1-0.2,0.1-0.1,0.3c0.3,1,0.6,2,0.7,3c0,0.2,0.1,0.2,0.3,0.3c0.3,0,0.7,0.1,1,0.1c0.4,0,0.5,0.2,0.6,0.6
				c0.1,0.2,0,0.4,0,0.6c0.1,0.6,0.1,0.6,0.7,0.6c1.5,0,3.1,0.2,4.6,0.5c0.9,0.1,1.7,0.3,2.5,0.8c1.7,1.2,2.7,2.9,3.4,4.8
				c0.1,0.3,0,0.6-0.3,0.7c-0.4,0.3-0.9,0.6-1.3,0.9c-0.2,0.1-0.3,0.3-0.3,0.5c0,1.6,0,3.1-0.3,4.7c-0.4,2.5-1.2,4.9-2.5,7
				c-1.1,1.8-2.5,3.3-4.3,4.4c-0.2,0.1-0.3,0.1-0.5,0.1c-13.6,0-27.3,0-40.9,0c-0.2,0-0.5,0-0.7-0.1c-0.8-0.3-1.4-0.9-1.9-1.6
				c-0.7-1-1.1-2.2-1.2-3.4c-0.1-1.5,0-3,0.8-4.3c0.4-0.7,0.8-1.4,0.7-2.2c0-0.2,0-0.3,0-0.5c0.1-0.5,0.1-1,0.5-1.4
				c2-2.1,4.1-4.2,6.3-6.1c0.2-0.1,0.2-0.3,0.2-0.5c0.1-0.8,0-1.7,0.1-2.5c0.1-1.9,0.2-3.8,0.5-5.8c0-0.3,0.1-0.5,0.3-0.6
				c1.7-1.4,3.5-2.6,5.3-3.8c0.2-0.1,0.2-0.2,0.1-0.4c-0.3-0.5-0.5-1-0.4-1.6c0.1-0.9,0.2-1.8,0.5-2.6c0.1-0.4,0.3-0.7,0.4-1.1
				c0.1-0.4,0.3-0.6,0.7-0.6c0.4-0.1,0.8-0.2,1.3-0.3c0.1,0,0.2,0,0.2-0.2c0-0.1-0.1-0.2-0.2-0.2C17.2,4.2,17,4,17,3.7
				c0-0.4,0-0.7,0-1.1c0-0.1,0-0.3,0.2-0.4c0.3-0.1,0.4-0.4,0.5-0.7c0-0.2,0.1-0.3,0.2-0.5c1-1.4,3.3-1.3,4.1,0.2
				c0.1,0.2,0.2,0.3,0.4,0.4c0.2,0.1,0.2,0.2,0.1,0.4c0,0.2-0.1,0.5,0,0.7c0.2,0.3,0.1,0.6,0.1,0.9c-0.1,0.4-0.1,0.9-0.6,1
				c-0.1,0-0.2,0.2-0.2,0.3c0,0.1,0.1,0.1,0.2,0.2c0.4,0.2,0.7,0.4,1.1,0.6c0.2,0.1,0.4,0.3,0.5,0.5c0.3,0.5,0.5,1,0.7,1.5
				c0.1,0.3,0.3,0.4,0.6,0.5c1.7,0.2,3.4,0.5,5.1,0.7c1.8,0.3,3.6,0.5,5.4,0.8c0.6,0.1,1.2,0.1,1.7,0.5c0.1,0.1,0.3,0,0.4-0.1
				c1.9-1.3,3.8-2.7,5.7-4c0.1-0.1,0.2-0.2,0.3-0.3c0.2-0.6,0.6-1.1,1.2-1.5c1.2-1,2.4-1.9,3.6-2.9C48.9,0.9,49.7,0.2,50.8,0z
				 M26.5,41.7c-0.1-0.1-0.2-0.1-0.3-0.1c-0.5,0-0.9,0-1.4,0c-0.1,0-0.3,0-0.3-0.1c-0.1-0.1,0-0.2,0.1-0.3c0.1-0.1,0.2-0.3,0.3-0.4
				c0.1-0.2,0.3-0.2,0.5-0.2c0.6,0,1.3,0,1.9,0c0.2,0,0.4-0.1,0.5-0.3c0.5-0.7,0.9-1.5,1.3-2.3c0.2-0.3,0.1-0.4-0.2-0.4
				c-0.5,0-1.1,0-1.6-0.1c-0.3,0-0.4-0.1-0.3-0.4c0-0.1,0.1-0.2,0.2-0.4c0.1-0.3,0.3-0.4,0.6-0.4c0.6,0,1.1,0.1,1.7,0.1
				c0.2,0,0.4-0.1,0.4-0.3c0.3-0.8,0.5-1.7,0.7-2.6c0.1-0.2,0-0.3-0.2-0.3c-0.4,0-0.9-0.1-1.3-0.1c-0.7,0-0.7,0-0.6-0.7
				c0.1-0.4,0.1-0.4,0.5-0.4c0.5,0,1,0.1,1.5,0.1c0.2,0,0.4,0.1,0.4-0.2c0.1-0.9,0.2-1.8,0.3-2.7c0-0.2-0.1-0.3-0.3-0.3
				c-0.5,0-1-0.1-1.4-0.1c-0.7,0-0.6-0.2-0.6-0.7c0-0.4,0.1-0.5,0.5-0.4c0.5,0,1,0.1,1.5,0.1c0.3,0,0.4,0,0.4-0.4c0-0.5,0-1,0-1.5
				c0-0.3-0.1-0.4-0.3-0.4c-1,0-2-0.1-3-0.2c-1.3-0.1-2.5-0.2-3.8-0.3c-0.4,0-0.4,0-0.4,0.4c0,1.4-0.1,2.8-0.2,4.1
				c-0.3,2.7-1,5.3-2.2,7.7c-1.1,2.3-2.5,4.3-4.6,5.8c0,0-0.1,0,0,0.1c0.1,0,0.2,0,0.3,0c2,0,4,0,6,0c0.9,0,1.7-0.2,2.4-0.8
				C25.8,42.3,26.2,42,26.5,41.7z M38.7,43.3c0.2,0,0.3,0,0.4,0c1.5,0,3,0,4.6,0c1.1,0,1.1,0,2-0.7c0.2-0.2,0.4-0.3,0.6-0.5
				c0.1,0,0.1-0.1,0.1-0.2c-0.1-0.1-0.2,0-0.3,0c-0.5,0-0.9,0-1.4,0c-0.1,0-0.2,0-0.3-0.1c-0.1-0.1,0-0.2,0.1-0.3
				c0.1-0.1,0.2-0.2,0.3-0.4c0.1-0.2,0.3-0.3,0.6-0.3c0.6,0,1.3,0,1.9,0c0.2,0,0.3-0.1,0.4-0.2c0.5-0.6,0.9-1.3,1.3-2
				c0.2-0.3,0.2-0.3-0.2-0.3c-0.6,0-1.1,0-1.7-0.1c-0.3,0-0.4-0.1-0.2-0.4c0.1-0.1,0.1-0.3,0.2-0.4c0.1-0.2,0.2-0.3,0.5-0.3
				c0.6,0,1.2,0.1,1.8,0.1c0.2,0,0.3-0.1,0.4-0.3c0.3-0.7,0.5-1.5,0.8-2.2c0.1-0.2,0-0.3-0.2-0.3c-0.6,0-1.2-0.1-1.7-0.1
				c-0.3,0-0.3-0.1-0.3-0.4c0-0.1,0-0.1,0.1-0.2c0.1-0.5,0.2-0.5,0.7-0.5c0.5,0,1,0.1,1.6,0.1c0.2,0,0.3,0,0.3-0.2
				c0.2-0.9,0.3-1.7,0.3-2.6c0-0.2-0.1-0.3-0.3-0.3c-0.4,0-0.8,0-1.2-0.1c-0.7,0-0.7,0-0.7-0.8c0,0,0,0,0-0.1c0-0.2,0.1-0.3,0.3-0.3
				c0.1,0,0.3,0,0.4,0c0.4,0,0.8,0.1,1.2,0.1c0.2,0,0.3,0,0.2-0.2c0-0.3,0-0.6,0-1c0-0.3-0.1-0.4-0.4-0.4c-0.7,0-1.5-0.1-2.2-0.2
				c-1.1-0.1-2.2-0.2-3.2-0.3c-0.3,0-0.4,0-0.4,0.3c0,0.9,0,1.8-0.1,2.7c-0.2,2.5-0.8,4.9-1.8,7.2c-0.8,1.8-1.7,3.4-3.1,4.8
				C39.6,42.5,39.2,42.9,38.7,43.3z M43.5,26.5c0-0.2,0-0.4,0-0.7c-0.2-2-2.1-3.9-4.1-4.1c-2.2-0.2-4.5-0.4-6.7-0.7
				c-0.1,0-0.2,0-0.2,0c-0.1,0.1,0,0.1,0.1,0.2c0.4,0.7,0.7,1.5,0.9,2.3c0.1,0.3,0,0.5-0.2,0.7c-0.4,0.4-0.8,0.7-1.2,1.1
				c-0.2,0.2-0.2,0.5-0.1,0.7c0,0.2,0.3,0.1,0.4,0.2c0.9,0.1,1.7,0.2,2.6,0.2c1.3,0.1,2.6,0.2,3.9,0.4c1.4,0.1,2.7,0.3,4.1,0.4
				C43.6,27.2,43.5,27.3,43.5,26.5z M11.8,23.1c0.1-0.1,0.2-0.1,0.3-0.2c1.5-0.8,3-1.6,4.5-2.3c1.2-0.5,2.4-1,3.7-1.4
				c0.3-0.1,0.5-0.1,0.8,0.1c0.4,0.2,0.8,0.5,1.1,0.9c0.5,0.6,0.9,1.3,1.1,2.1c0.1,0.2,0.2,0.3,0.4,0.3c1.3,0.1,2.6,0.2,3.9,0.3
				c1.5,0.1,3,0.3,4.5,0.4c0.2,0,0.3,0,0.2-0.3c-0.3-0.9-0.7-1.7-1.3-2.4c-0.7-0.8-1.5-1.4-2.5-1.7c-1.2-0.3-2.4-0.5-3.6-0.5
				c-0.8,0-1.5-0.1-2.3-0.1c-0.5,0-1.1-0.2-1.6,0c-0.7,0.2-1.4,0.5-2,0.7c-1.8,0.7-3.6,1.7-5.3,2.8C12.9,22.3,12.3,22.7,11.8,23.1z
				 M23,9.1c-0.6,0-0.7,0.2-0.5,0.6c0.4,1.1,0.8,2.3,1,3.4c0.1,0.7,0.3,1.5,0.3,2.2c0,0.4,0.1,0.4,0.5,0.5c0.8,0.1,1.6,0.2,2.4,0.3
				c0.3,0,0.3-0.1,0.3-0.3c0-1.3-0.1-2.5-0.5-3.7c-0.1-0.5-0.1-0.6,0.4-0.8c0.2-0.1,0.5-0.2,0.7-0.1c2.2,0.3,4.4,0.6,6.7,0.9
				c0.2,0,0.3,0.1,0.5,0c0.5-0.3,0.9-0.6,1.4-1c0.1-0.1,0.1-0.2,0-0.2c-0.1,0-0.1,0-0.2-0.1c-1.6-0.2-3.2-0.5-4.8-0.7
				c-2-0.3-4-0.6-6-0.9C24.3,9.3,23.6,9.2,23,9.1z M48.2,4.1c0,0.3,0,0.6,0.1,0.8c0.3,2,2.6,3.8,5,2.6c2.3-1.1,2.6-4.1,0.7-5.7
				c-0.9-0.8-2-1-3.1-0.8c-0.4,0.1-0.8,0.2-1.2,0.5c-1.7,1.3-3.3,2.6-4.9,4c-0.7,0.6-1,1.3-0.9,2.2C44,8,44,8,44.3,7.8
				c1-0.7,2-1.4,3.1-2.1c0.3-0.2,0.5-0.4,0.5-0.8C47.9,4.7,48,4.4,48.2,4.1z M42.6,20.7c0.1,0,0.1,0.1,0.2,0.1
				c1.4,0.7,2.4,1.8,2.8,3.4c0.1,0.5,0.1,0.5,0.7,0.6c0,0,0.1,0,0.1,0c1.1,0.1,2.1,0.2,3.2,0.3c1,0.1,2,0.2,3.1,0.3
				c0.2,0,0.2,0,0.1-0.2c-0.4-0.8-0.8-1.6-1.4-2.3c-0.7-0.8-1.4-1.4-2.5-1.6c-0.4-0.1-0.9-0.2-1.3-0.2c-1.1-0.2-2.3-0.3-3.4-0.4
				C43.7,20.7,43.1,20.7,42.6,20.7z M41.1,19.6c0.2,0,0.4,0,0.5,0c0.2,0,0.3-0.1,0.2-0.3c0-0.2,0.1-0.4-0.2-0.4
				c-0.3,0-0.6-0.1-0.9-0.1c-1.4-0.2-2.9-0.3-4.3-0.5c-1.6-0.2-3.2-0.4-4.8-0.6c-1.6-0.2-3.2-0.4-4.8-0.6c-1-0.1-2-0.2-3-0.4
				c-0.1,0-0.2-0.1-0.2,0c-0.1,0.2-0.1,0.4,0,0.5c0,0.1,0.2,0.1,0.3,0.1c1.2,0.1,2.4,0.2,3.6,0.4c1.4,0.2,2.7,0.8,3.8,1.8
				c0.2,0.2,0.3,0.2,0.6,0.3c0.7,0.1,1.5,0.2,2.2,0.2c1.6,0.2,3.2,0.3,4.7,0.5c0.4,0,0.9,0.1,1.1-0.4C40.2,19.7,40.6,19.5,41.1,19.6
				z M17.2,33.8c-0.8-0.5-1.3-1.1-1.6-1.9c-0.1-0.1-0.2-0.2-0.3-0.2c-0.3,0-0.6,0-1,0c-0.3,0-0.4-0.1-0.5-0.4c0-0.2,0-0.3,0.2-0.3
				c0.2,0,0.5,0,0.7,0c0.5,0,0.5,0,0.4-0.4c0-0.1-0.1-0.2-0.1-0.3c0-0.2-0.1-0.2-0.3-0.2c-0.3,0-0.6,0-0.9,0c-0.2,0-0.3-0.1-0.3-0.3
				c0-0.3,0-0.5,0-0.8c0-0.1,0-0.2-0.1-0.1c-0.3,0-0.5,0.4-0.5,0.7c0.1,0.5,0.1,1,0.2,1.4c0.3,1.3,0.8,2.6,1.7,3.5
				c1.1,1.1,2.6,1.3,4,0.5c0.9-0.5,1.6-1.4,2.1-2.3c1.2-2.1,1.4-4.3,1-6.6c-0.1-0.8-0.4-1.6-0.8-2.3c-0.1-0.2-0.2-0.2-0.4-0.1
				c-0.1,0.1-0.3,0.2-0.4,0.3c-0.2,0.1-0.2,0.2-0.1,0.4c0.3,0.4,0.5,0.9,0.7,1.5c0.3,1.1,0.4,2.2,0.2,3.3c-0.2,1.5-0.7,2.8-1.7,3.9
				c-0.7,0.7-1.5,1.1-2.4,1c-0.4,0-1-0.2-1.1-0.5C16.2,34,16.7,33.9,17.2,33.8z M33,14.9c0,0.1,0,0.1,0,0.1c0,0.4,0.1,0.5,0.4,0.2
				c0.6-0.3,1.2-0.7,1.7-1.1c2.7-1.7,5.5-3.3,8.3-5c0.2-0.1,0.3-0.2,0.2-0.5c-0.2-0.4-0.3-0.8-0.3-1.2c0-0.1,0-0.2,0-0.3
				c-0.1-0.1-0.2,0.1-0.3,0.1c-3.2,2.2-6.3,4.4-9.5,6.6C33.2,14.2,33.1,14.6,33,14.9z M33.6,12.9c-0.2,0-0.3-0.1-0.5-0.1
				c-1.6-0.2-3.1-0.4-4.7-0.6c-0.1,0-0.2-0.1-0.3,0c-0.1,0.1,0.1,0.2,0.1,0.2c0.4,0.6,0.6,1.2,0.6,1.9c0,0.6-0.1,1.2-0.4,1.8
				c-0.1,0.2-0.1,0.3,0.1,0.3c0.8,0.1,1.7,0.2,2.5,0.3c0.3,0,0.3-0.1,0.4-0.3c0.2-0.8,0.5-1.6,0.8-2.4c0.1-0.2,0.2-0.4,0.4-0.5
				C33.1,13.3,33.3,13.1,33.6,12.9z M17,8.7c0.2,0.3,0.4,0.6,0.5,0.9c0.1,0.2,0.2,0.2,0.4,0.1c0.3-0.2,0.7-0.4,1.1-0.5
				c0.8-0.4,1.6-0.9,2.5-1C21.8,8,22.2,8,22.6,8c0.1,0,0.3,0,0.2-0.2c-0.1-0.5-0.1-0.9-0.1-1.4c0-0.3-0.3-0.2-0.4-0.3
				c-0.1-0.1-0.2,0-0.3,0.1c-0.2,0.5-0.7,0.7-1.2,0.7c-0.9,0-1.7-0.3-2.3-1c-0.3-0.3-0.5-0.3-0.9-0.3c-0.3,0.1-0.3,0.1-0.2,0.4
				c0.2,0.8,0.3,1.6,0.3,2.4c0,0.6,0,0.6-0.5,0.3C17.1,8.7,17.1,8.7,17,8.7z M3.8,41.8c-0.5-0.3-0.8-0.8-1.1-1.2
				c-0.1-0.1-0.2-0.1-0.3-0.1c-0.2,0-0.4,0-0.6,0c-0.2,0-0.2-0.2-0.2-0.3C1.6,40,1.8,40,1.9,40c0.1,0,0.1,0,0.2,0
				c0.5,0.1,0.5,0,0.4-0.4c0-0.1-0.1-0.2-0.2-0.2c-0.1,0-0.3,0-0.4,0c-0.2,0-0.3-0.1-0.3-0.3c0-0.4,0-0.8,0-1.1
				c0.1-0.3,0.1-0.5,0.1-0.8c-0.3,0.1-0.5,0.3-0.5,0.7c0,0.3,0,0.6-0.1,0.9C1,39.9,1.3,41,2,42c0.8,1.1,2.1,1.3,3.2,0.4
				c0.4-0.3,0.7-0.7,1-1.2c0.7-1.2,0.9-2.6,0.7-4c-0.1-0.9-0.4-1.6-1-2.3c-0.4-0.4-0.4-0.4-0.9-0.1c-0.1,0.1-0.1,0.1,0,0.2
				c0.4,0.3,0.7,0.6,0.9,1C6.3,37,6.4,38,6.3,39c-0.1,0.9-0.5,1.8-1.1,2.5c-0.3,0.3-0.6,0.6-1.1,0.6c-0.4,0.1-0.9,0.1-1.3-0.3
				C3.2,41.9,3.5,41.9,3.8,41.8z M16.8,39.9c0-1.3-0.2-2-0.7-2.6c-0.4-0.5-0.9-0.7-1.5-0.5c-0.5,0.1-0.9,0.4-1.2,0.8
				c-0.7,0.8-0.9,1.8-0.9,2.9c0,0.6,0.1,1.2,0.4,1.7c0.3,0.6,0.8,1.1,1.6,1c0.5,0,0.9-0.3,1.2-0.7C16.5,41.7,16.8,40.6,16.8,39.9z
				 M11.8,32c-0.1-0.5-0.2-1-0.2-1.6c0-0.2-0.1-0.1-0.2-0.1c-0.5,0.3-0.9,0.6-1.4,1c-1.1,0.7-2.1,1.5-3.2,2.2
				c-0.1,0-0.3,0.1-0.1,0.2C7,34,7.3,34.3,7.6,34.7c0.1,0.1,0.2,0.1,0.3,0c1.3-0.9,2.5-1.7,3.8-2.6C11.7,32.1,11.8,32.1,11.8,32z
				 M11.3,40.1c0-0.4-0.1-1-0.4-1.5c-0.5-0.7-1.4-0.9-2-0.3c-0.2,0.2-0.4,0.4-0.6,0.7c-0.6,1.1-0.7,2.2-0.2,3.3
				c0.3,0.6,0.8,0.9,1.4,0.9c0.5,0,0.8-0.3,1.1-0.7C11,41.9,11.2,41.1,11.3,40.1z M39.9,17.6c-0.1-0.9-0.3-1.7-0.6-2.6
				c-0.1-0.1-0.1-0.2-0.3-0.1c-0.2,0.1-0.4,0.2-0.7,0.3c-0.1,0.1-0.2,0.1-0.1,0.2c0.1,0.6,0.1,1.3-0.1,1.9c0,0.1,0,0.2,0.1,0.2
				c0.5,0.1,1,0.1,1.5,0.2C39.9,17.8,40,17.8,39.9,17.6z M18.9,2.3c0,0.6,0.1,0.8,0.7,0.8c0.4,0,0.7,0,0.9-0.4
				c0-0.1,0.1-0.1,0.2-0.1c0.3,0,0.6,0,0.7,0.4c0,0.1,0.1,0.2,0.3,0.2c0.1,0,0.2-0.1,0.2-0.2c0.1-0.2,0.1-0.4,0.1-0.6
				C22.2,2.1,22,2,21.8,2c-0.8-0.2-1.5-0.2-2.3-0.2C19,1.7,18.9,1.8,18.9,2.3z M37.4,16.3c0-0.1,0-0.2,0-0.2c0-0.3,0-0.3-0.3-0.2
				c-0.7,0.3-1.3,0.7-2,1c-0.1,0-0.2,0.1-0.2,0.2c0,0.1,0.1,0.1,0.2,0.1c0.6,0.1,1.2,0.2,1.8,0.2c0.1,0,0.2,0,0.3-0.2
				C37.3,17,37.4,16.7,37.4,16.3z M20.7,4.7c0.6,0,0.9-0.3,0.9-0.8c0-0.1,0-0.2-0.1-0.2c-0.2-0.1-0.2-0.2-0.3-0.4
				C21.1,3.1,21,3,20.9,3.2c-0.2,0.4-0.6,0.4-0.9,0.4c-0.2,0-0.3,0.1-0.2,0.3C19.8,4.4,20.2,4.7,20.7,4.7z M9.6,35.6
				c0,0.1,0,0.1,0,0.2c0,0.3,0.1,0.3,0.3,0.2c0.3-0.1,0.5-0.3,0.8-0.4c0.5-0.2,0.5-0.2,0.2-0.7c-0.1-0.1-0.2-0.2-0.3-0.1
				c-0.3,0.2-0.6,0.4-0.9,0.5C9.6,35.4,9.6,35.5,9.6,35.6z"/>
			<path class="st0" d="M42.2,26.7c-0.3,0-0.5-0.2-0.5-0.5c0-0.2,0.2-0.5,0.5-0.5c0.3,0,0.5,0.2,0.5,0.5
				C42.7,26.5,42.5,26.7,42.2,26.7z"/>
			<path class="st0" d="M39.5,25.5c0.3,0,0.5,0.2,0.5,0.5c0,0.3-0.2,0.5-0.5,0.5c-0.3,0-0.5-0.2-0.5-0.5
				C39,25.7,39.2,25.5,39.5,25.5z"/>
			<path class="st0" d="M36.5,25.2c0.3,0,0.5,0.2,0.5,0.5c0,0.3-0.2,0.5-0.5,0.5c-0.3,0-0.5-0.2-0.5-0.5
				C36,25.4,36.2,25.2,36.5,25.2z"/>
			<path class="st0" d="M33.4,25.8c-0.3,0-0.5-0.2-0.5-0.5c0-0.3,0.2-0.5,0.5-0.5c0.3,0,0.4,0.2,0.4,0.5
				C33.9,25.6,33.7,25.8,33.4,25.8z"/>
			<path class="st0" d="M24.9,15.1c0-0.2,0.2-0.4,0.4-0.4c0.2,0,0.4,0.2,0.4,0.5c0,0.3-0.2,0.5-0.4,0.5
				C25.1,15.6,24.9,15.4,24.9,15.1z"/>
			<path class="st0" d="M25.4,12.7c0,0.3-0.2,0.5-0.4,0.5c-0.2,0-0.4-0.2-0.4-0.5c0-0.2,0.2-0.5,0.4-0.5
				C25.2,12.2,25.4,12.4,25.4,12.7z"/>
			<path class="st0" d="M23.9,10.3c0-0.3,0.2-0.4,0.4-0.5c0.2,0,0.4,0.2,0.4,0.5c0,0.3-0.2,0.5-0.4,0.5
				C24.1,10.8,23.9,10.6,23.9,10.3z"/>
			<path class="st0" d="M53.7,2.2c-0.6-0.4-1,0-1.3,0.4c-0.8,0.7-1.6,1.5-2.4,2.2c-0.2,0.2-0.1,0.8,0.2,0.9c0.1,0,0.2,0,0.3-0.1
				c1.2-0.7,2.5-1.4,3.7-2.1c0.4-0.2,0.5-0.2,0.6,0.3c0.1,0.4,0.1,0.5-0.3,0.7C53.3,5,52.2,5.6,51,6.1c-0.1,0-0.2,0.1-0.2,0.1
				c0,0.1,0.1,0.1,0.2,0.2c0.2,0.1,0.3,0,0.5,0c0.9-0.3,1.8-0.5,2.7-0.8c0.1,0,0.2-0.1,0.3,0c0.1,0.1,0,0.2-0.1,0.3
				c-1.2,1.7-3.4,1.7-4.6,0.4c-0.8-0.8-1-1.8-0.7-2.9c0.4-1.1,1.1-1.7,2.2-1.9c0.8-0.1,1.6,0,2.2,0.6C53.7,2,53.7,2.1,53.7,2.2z"/>
			<path class="st0" d="M13.8,42.2c0.2-0.1,0.3,0,0.5-0.1c-0.3-0.2-0.5-0.4-0.6-0.7c-0.1-0.1-0.2-0.1-0.3-0.1c-0.1,0-0.2,0-0.3,0
				c-0.1,0-0.1-0.1-0.1-0.2c0-0.1,0.1-0.1,0.1-0.1c0.1,0,0.1,0,0.2,0c0.1,0,0.2,0,0.2-0.1c0-0.1-0.1-0.2-0.2-0.2
				c-0.5-0.1-0.5-0.1-0.4-0.6c0-0.7,0.3-1.4,0.7-1.9c0.3-0.4,0.7-0.7,1.3-0.6c0.4,0.1,0.7,0.3,0.9,0.6c0.6,1.1,0.3,3-0.7,3.8
				c-0.3,0.2-0.6,0.3-0.9,0.3C14.1,42.4,13.9,42.3,13.8,42.2z"/>
			<path class="st0" d="M8.9,42.4c0.1,0,0.2,0,0.4,0C9,42.2,8.9,42,8.8,41.8c-0.1-0.2-0.2-0.1-0.4-0.1c-0.1,0-0.2,0-0.2-0.1
				c0-0.1,0.1-0.1,0.2-0.1c0.1,0,0.2,0,0.2-0.1c0-0.1-0.1-0.2-0.2-0.2c-0.3,0-0.3-0.2-0.3-0.4c0-0.6,0.2-1.1,0.5-1.6
				c0.6-0.8,1.5-0.7,1.9,0.2c0.4,0.9,0.1,2.3-0.6,2.9C9.6,42.6,9.2,42.6,8.9,42.4z"/>
		</g>
	</g>
</g>
</svg>
