<svg version="1.1" id="Layer_1" xmlns="http://www.w3.org/2000/svg" x="0" y="0" viewBox="0 0 56.2 44.3" xml:space="preserve">
    <path fill="currentColor" class="st0" d="M50.8 0h1.5c.7.1 1.4.4 2 .8 1 .8 1.6 1.8 1.8 3.1v1.4C55.8 7 54.8 8 53.3 8.7c-1.7.7-3.4 1.4-5.1 2.2-.6.3-1.2.4-1.8.4-.1 0-.3 0-.4.1l-5.7 3c-.1.1-.2.1-.1.3.3 1 .6 2 .7 3 0 .2.1.2.3.3.3 0 .7.1 1 .1.4 0 .5.2.6.6.1.2 0 .4 0 .6.1.6.1.6.7.6 1.5 0 3.1.2 4.6.5.9.1 1.7.3 2.5.8 1.7 1.2 2.7 2.9 3.4 4.8.1.3 0 .6-.3.7-.4.3-.9.6-1.3.9-.2.1-.3.3-.3.5 0 1.6 0 3.1-.3 4.7-.4 2.5-1.2 4.9-2.5 7-1.1 1.8-2.5 3.3-4.3 4.4-.2.1-.3.1-.5.1H3.6c-.2 0-.5 0-.7-.1-.8-.3-1.4-.9-1.9-1.6-.7-1-1.1-2.2-1.2-3.4-.1-1.5 0-3 .8-4.3.4-.7.8-1.4.7-2.2v-.5c.1-.5.1-1 .5-1.4 2-2.1 4.1-4.2 6.3-6.1.2-.1.2-.3.2-.5.1-.8 0-1.7.1-2.5.1-1.9.2-3.8.5-5.8 0-.3.1-.5.3-.6 1.7-1.4 3.5-2.6 5.3-3.8.2-.1.2-.2.1-.4-.3-.5-.5-1-.4-1.6.1-.9.2-1.8.5-2.6.1-.4.3-.7.4-1.1.1-.4.3-.6.7-.6.4-.1.8-.2 1.3-.3.1 0 .2 0 .2-.2 0-.1-.1-.2-.2-.2.1-.3-.1-.5-.1-.8V2.6c0-.1 0-.3.2-.4.3-.1.4-.4.5-.7 0-.2.1-.3.2-.5 1-1.4 3.3-1.3 4.1.2.1.2.2.3.4.4.2.1.2.2.1.4 0 .2-.1.5 0 .7.2.3.1.6.1.9-.1.4-.1.9-.6 1-.1 0-.2.2-.2.3 0 .1.1.1.2.2.4.2.7.4 1.1.6.2.1.4.3.5.5.3.5.5 1 .7 1.5.1.3.3.4.6.5 1.7.2 3.4.5 5.1.7 1.8.3 3.6.5 5.4.8.6.1 1.2.1 1.7.5.1.1.3 0 .4-.1 1.9-1.3 3.8-2.7 5.7-4l.3-.3c.2-.6.6-1.1 1.2-1.5 1.2-1 2.4-1.9 3.6-2.9.6-.5 1.4-1.2 2.5-1.4zM26.5 41.7c-.1-.1-.2-.1-.3-.1h-1.4c-.1 0-.3 0-.3-.1-.1-.1 0-.2.1-.3.1-.1.2-.3.3-.4.1-.2.3-.2.5-.2h1.9c.2 0 .4-.1.5-.3.5-.7.9-1.5 1.3-2.3.2-.3.1-.4-.2-.4-.5 0-1.1 0-1.6-.1-.3 0-.4-.1-.3-.4 0-.1.1-.2.2-.4.1-.3.3-.4.6-.4.6 0 1.1.1 1.7.1.2 0 .4-.1.4-.3.3-.8.5-1.7.7-2.6.1-.2 0-.3-.2-.3-.4 0-.9-.1-1.3-.1-.7 0-.7 0-.6-.7.1-.4.1-.4.5-.4.5 0 1 .1 1.5.1.2 0 .4.1.4-.2l.3-2.7c0-.2-.1-.3-.3-.3-.5 0-1-.1-1.4-.1-.7 0-.6-.2-.6-.7 0-.4.1-.5.5-.4.5 0 1 .1 1.5.1.3 0 .4 0 .4-.4v-1.5c0-.3-.1-.4-.3-.4-1 0-2-.1-3-.2-1.3-.1-2.5-.2-3.8-.3-.4 0-.4 0-.4.4 0 1.4-.1 2.8-.2 4.1-.3 2.7-1 5.3-2.2 7.7-1.1 2.3-2.5 4.3-4.6 5.8 0 0-.1 0 0 .1h6.3c.9 0 1.7-.2 2.4-.8.3 0 .7-.3 1-.6zm12.2 1.6h5c1.1 0 1.1 0 2-.7.2-.2.4-.3.6-.5.1 0 .1-.1.1-.2-.1-.1-.2 0-.3 0h-1.4c-.1 0-.2 0-.3-.1-.1-.1 0-.2.1-.3.1-.1.2-.2.3-.4.1-.2.3-.3.6-.3h1.9c.2 0 .3-.1.4-.2.5-.6.9-1.3 1.3-2 .2-.3.2-.3-.2-.3-.6 0-1.1 0-1.7-.1-.3 0-.4-.1-.2-.4.1-.1.1-.3.2-.4.1-.2.2-.3.5-.3.6 0 1.2.1 1.8.1.2 0 .3-.1.4-.3.3-.7.5-1.5.8-2.2.1-.2 0-.3-.2-.3-.6 0-1.2-.1-1.7-.1-.3 0-.3-.1-.3-.4 0-.1 0-.1.1-.2.1-.5.2-.5.7-.5.5 0 1 .1 1.6.1.2 0 .3 0 .3-.2.2-.9.3-1.7.3-2.6 0-.2-.1-.3-.3-.3-.4 0-.8 0-1.2-.1-.7 0-.7 0-.7-.8v-.1c0-.2.1-.3.3-.3h.4c.4 0 .8.1 1.2.1.2 0 .3 0 .2-.2v-1c0-.3-.1-.4-.4-.4-.7 0-1.5-.1-2.2-.2-1.1-.1-2.2-.2-3.2-.3-.3 0-.4 0-.4.3 0 .9 0 1.8-.1 2.7-.2 2.5-.8 4.9-1.8 7.2-.8 1.8-1.7 3.4-3.1 4.8-.5.6-.9 1-1.4 1.4zm4.8-16.8v-.7c-.2-2-2.1-3.9-4.1-4.1-2.2-.2-4.5-.4-6.7-.7h-.2c-.1.1 0 .1.1.2.4.7.7 1.5.9 2.3.1.3 0 .5-.2.7-.4.4-.8.7-1.2 1.1-.2.2-.2.5-.1.7 0 .2.3.1.4.2.9.1 1.7.2 2.6.2 1.3.1 2.6.2 3.9.4 1.4.1 2.7.3 4.1.4.6 0 .5.1.5-.7zm-31.7-3.4c.1-.1.2-.1.3-.2 1.5-.8 3-1.6 4.5-2.3 1.2-.5 2.4-1 3.7-1.4.3-.1.5-.1.8.1.4.2.8.5 1.1.9.5.6.9 1.3 1.1 2.1.1.2.2.3.4.3l3.9.3c1.5.1 3 .3 4.5.4.2 0 .3 0 .2-.3-.3-.9-.7-1.7-1.3-2.4-.7-.8-1.5-1.4-2.5-1.7-1.2-.3-2.4-.5-3.6-.5-.8 0-1.5-.1-2.3-.1-.5 0-1.1-.2-1.6 0-.7.2-1.4.5-2 .7-1.8.7-3.6 1.7-5.3 2.8-.8.5-1.4.9-1.9 1.3zM23 9.1c-.6 0-.7.2-.5.6.4 1.1.8 2.3 1 3.4.1.7.3 1.5.3 2.2 0 .4.1.4.5.5l2.4.3c.3 0 .3-.1.3-.3 0-1.3-.1-2.5-.5-3.7-.1-.5-.1-.6.4-.8.2-.1.5-.2.7-.1 2.2.3 4.4.6 6.7.9.2 0 .3.1.5 0 .5-.3.9-.6 1.4-1 .1-.1.1-.2 0-.2s-.1 0-.2-.1c-1.6-.2-3.2-.5-4.8-.7l-6-.9c-.9.1-1.6 0-2.2-.1zm25.2-5c0 .3 0 .6.1.8.3 2 2.6 3.8 5 2.6 2.3-1.1 2.6-4.1.7-5.7-.9-.8-2-1-3.1-.8-.4.1-.8.2-1.2.5-1.7 1.3-3.3 2.6-4.9 4-.7.6-1 1.3-.9 2.2.1.3.1.3.4.1 1-.7 2-1.4 3.1-2.1.3-.2.5-.4.5-.8 0-.2.1-.5.3-.8zm-5.6 16.6c.1 0 .1.1.2.1 1.4.7 2.4 1.8 2.8 3.4.1.5.1.5.7.6h.1c1.1.1 2.1.2 3.2.3 1 .1 2 .2 3.1.3.2 0 .2 0 .1-.2-.4-.8-.8-1.6-1.4-2.3-.7-.8-1.4-1.4-2.5-1.6-.4-.1-.9-.2-1.3-.2-1.1-.2-2.3-.3-3.4-.4h-1.6zm-1.5-1.1h.5c.2 0 .3-.1.2-.3 0-.2.1-.4-.2-.4-.3 0-.6-.1-.9-.1-1.4-.2-2.9-.3-4.3-.5l-4.8-.6-4.8-.6c-1-.1-2-.2-3-.4-.1 0-.2-.1-.2 0-.1.2-.1.4 0 .5 0 .1.2.1.3.1 1.2.1 2.4.2 3.6.4 1.4.2 2.7.8 3.8 1.8.2.2.3.2.6.3.7.1 1.5.2 2.2.2 1.6.2 3.2.3 4.7.5.4 0 .9.1 1.1-.4.3-.4.7-.6 1.2-.5zM17.2 33.8c-.8-.5-1.3-1.1-1.6-1.9-.1-.1-.2-.2-.3-.2h-1c-.3 0-.4-.1-.5-.4 0-.2 0-.3.2-.3h.7c.5 0 .5 0 .4-.4 0-.1-.1-.2-.1-.3 0-.2-.1-.2-.3-.2h-.9c-.2 0-.3-.1-.3-.3V29c0-.1 0-.2-.1-.1-.3 0-.5.4-.5.7.1.5.1 1 .2 1.4.3 1.3.8 2.6 1.7 3.5 1.1 1.1 2.6 1.3 4 .5.9-.5 1.6-1.4 2.1-2.3 1.2-2.1 1.4-4.3 1-6.6-.1-.8-.4-1.6-.8-2.3-.1-.2-.2-.2-.4-.1-.1.1-.3.2-.4.3-.2.1-.2.2-.1.4.3.4.5.9.7 1.5.3 1.1.4 2.2.2 3.3-.2 1.5-.7 2.8-1.7 3.9-.7.7-1.5 1.1-2.4 1-.4 0-1-.2-1.1-.5.3.4.8.3 1.3.2zM33 14.9v.1c0 .4.1.5.4.2.6-.3 1.2-.7 1.7-1.1 2.7-1.7 5.5-3.3 8.3-5 .2-.1.3-.2.2-.5-.2-.4-.3-.8-.3-1.2v-.3c-.1-.1-.2.1-.3.1-3.2 2.2-6.3 4.4-9.5 6.6-.3.4-.4.8-.5 1.1zm.6-2c-.2 0-.3-.1-.5-.1-1.6-.2-3.1-.4-4.7-.6-.1 0-.2-.1-.3 0-.1.1.1.2.1.2.4.6.6 1.2.6 1.9 0 .6-.1 1.2-.4 1.8-.1.2-.1.3.1.3.8.1 1.7.2 2.5.3.3 0 .3-.1.4-.3.2-.8.5-1.6.8-2.4.1-.2.2-.4.4-.5.5-.2.7-.4 1-.6zM17 8.7c.2.3.4.6.5.9.1.2.2.2.4.1.3-.2.7-.4 1.1-.5.8-.4 1.6-.9 2.5-1 .3-.2.7-.2 1.1-.2.1 0 .3 0 .2-.2-.1-.5-.1-.9-.1-1.4 0-.3-.3-.2-.4-.3-.1-.1-.2 0-.3.1-.2.5-.7.7-1.2.7-.9 0-1.7-.3-2.3-1-.3-.3-.5-.3-.9-.3-.3.1-.3.1-.2.4.2.8.3 1.6.3 2.4 0 .6 0 .6-.5.3H17zM3.8 41.8c-.5-.3-.8-.8-1.1-1.2-.1-.1-.2-.1-.3-.1h-.6c-.2 0-.2-.2-.2-.3 0-.2.2-.2.3-.2h.2c.5.1.5 0 .4-.4 0-.1-.1-.2-.2-.2h-.4c-.2 0-.3-.1-.3-.3V38c.1-.3.1-.5.1-.8-.3.1-.5.3-.5.7 0 .3 0 .6-.1.9-.1 1.1.2 2.2.9 3.2.8 1.1 2.1 1.3 3.2.4.4-.3.7-.7 1-1.2.7-1.2.9-2.6.7-4-.1-.9-.4-1.6-1-2.3-.4-.4-.4-.4-.9-.1-.1.1-.1.1 0 .2.4.3.7.6.9 1 .4 1 .5 2 .4 3-.1.9-.5 1.8-1.1 2.5-.3.3-.6.6-1.1.6-.4.1-.9.1-1.3-.3.4.1.7.1 1 0zm13-1.9c0-1.3-.2-2-.7-2.6-.4-.5-.9-.7-1.5-.5-.5.1-.9.4-1.2.8-.7.8-.9 1.8-.9 2.9 0 .6.1 1.2.4 1.7.3.6.8 1.1 1.6 1 .5 0 .9-.3 1.2-.7.8-.8 1.1-1.9 1.1-2.6zm-5-7.9c-.1-.5-.2-1-.2-1.6 0-.2-.1-.1-.2-.1-.5.3-.9.6-1.4 1-1.1.7-2.1 1.5-3.2 2.2-.1 0-.3.1-.1.2.3.3.6.6.9 1 .1.1.2.1.3 0 1.3-.9 2.5-1.7 3.8-2.6 0 0 .1 0 .1-.1zm-.5 8.1c0-.4-.1-1-.4-1.5-.5-.7-1.4-.9-2-.3-.2.2-.4.4-.6.7-.6 1.1-.7 2.2-.2 3.3.3.6.8.9 1.4.9.5 0 .8-.3 1.1-.7.4-.6.6-1.4.7-2.4zm28.6-22.5c-.1-.9-.3-1.7-.6-2.6-.1-.1-.1-.2-.3-.1-.2.1-.4.2-.7.3-.1.1-.2.1-.1.2.1.6.1 1.3-.1 1.9 0 .1 0 .2.1.2.5.1 1 .1 1.5.2.2.1.3.1.2-.1zm-21-15.3c0 .6.1.8.7.8.4 0 .7 0 .9-.4 0-.1.1-.1.2-.1.3 0 .6 0 .7.4 0 .1.1.2.3.2.1 0 .2-.1.2-.2.1-.2.1-.4.1-.6.2-.3 0-.4-.2-.4-.8-.2-1.5-.2-2.3-.2-.5-.1-.6 0-.6.5zm18.5 14v-.2c0-.3 0-.3-.3-.2-.7.3-1.3.7-2 1-.1 0-.2.1-.2.2s.1.1.2.1c.6.1 1.2.2 1.8.2.1 0 .2 0 .3-.2.1-.2.2-.5.2-.9zM20.7 4.7c.6 0 .9-.3.9-.8 0-.1 0-.2-.1-.2-.2-.1-.2-.2-.3-.4-.1-.2-.2-.3-.3-.1-.2.4-.6.4-.9.4-.2 0-.3.1-.2.3 0 .5.4.8.9.8zM9.6 35.6v.2c0 .3.1.3.3.2.3-.1.5-.3.8-.4.5-.2.5-.2.2-.7-.1-.1-.2-.2-.3-.1-.3.2-.6.4-.9.5-.1.1-.1.2-.1.3z"/>
    <path class="st0" d="M42.2 26.7c-.3 0-.5-.2-.5-.5 0-.2.2-.5.5-.5s.5.2.5.5-.2.5-.5.5zM39.5 25.5c.3 0 .5.2.5.5s-.2.5-.5.5-.5-.2-.5-.5.2-.5.5-.5zM36.5 25.2c.3 0 .5.2.5.5s-.2.5-.5.5-.5-.2-.5-.5.2-.5.5-.5zM33.4 25.8c-.3 0-.5-.2-.5-.5s.2-.5.5-.5.4.2.4.5c.1.3-.1.5-.4.5zM24.9 15.1c0-.2.2-.4.4-.4s.4.2.4.5-.2.5-.4.5c-.2-.1-.4-.3-.4-.6zM25.4 12.7c0 .3-.2.5-.4.5s-.4-.2-.4-.5c0-.2.2-.5.4-.5s.4.2.4.5zM23.9 10.3c0-.3.2-.4.4-.5.2 0 .4.2.4.5s-.2.5-.4.5-.4-.2-.4-.5zM53.7 2.2c-.6-.4-1 0-1.3.4-.8.7-1.6 1.5-2.4 2.2-.2.2-.1.8.2.9.1 0 .2 0 .3-.1 1.2-.7 2.5-1.4 3.7-2.1.4-.2.5-.2.6.3.1.4.1.5-.3.7-1.2.5-2.3 1.1-3.5 1.6-.1 0-.2.1-.2.1 0 .1.1.1.2.2.2.1.3 0 .5 0 .9-.3 1.8-.5 2.7-.8.1 0 .2-.1.3 0 .1.1 0 .2-.1.3-1.2 1.7-3.4 1.7-4.6.4-.8-.8-1-1.8-.7-2.9.4-1.1 1.1-1.7 2.2-1.9.8-.1 1.6 0 2.2.6.2-.1.2 0 .2.1zM13.8 42.2c.2-.1.3 0 .5-.1-.3-.2-.5-.4-.6-.7-.1-.1-.2-.1-.3-.1h-.3c-.1 0-.1-.1-.1-.2s.1-.1.1-.1h.2c.1 0 .2 0 .2-.1s-.1-.2-.2-.2c-.5-.1-.5-.1-.4-.6 0-.7.3-1.4.7-1.9.3-.4.7-.7 1.3-.6.4.1.7.3.9.6.6 1.1.3 3-.7 3.8-.3.2-.6.3-.9.3-.1.1-.3 0-.4-.1zM8.9 42.4h.4c-.3-.2-.4-.4-.5-.6-.1-.2-.2-.1-.4-.1-.1 0-.2 0-.2-.1s.1-.1.2-.1.2 0 .2-.1-.1-.2-.2-.2c-.3 0-.3-.2-.3-.4 0-.6.2-1.1.5-1.6.6-.8 1.5-.7 1.9.2.4.9.1 2.3-.6 2.9-.3.3-.7.3-1 .1z"/>
</svg>

