<?xml version="1.0" encoding="utf-8"?>
<!-- Generator: Adobe Illustrator 25.2.3, SVG Export Plug-In . SVG Version: 6.00 Build 0)  -->
<svg version="1.1" id="Layer_1" xmlns="http://www.w3.org/2000/svg" xmlns:xlink="http://www.w3.org/1999/xlink" x="0px" y="0px"
	 viewBox="0 0 42.8 44.7" style="enable-background:new 0 0 42.8 44.7;" xml:space="preserve">
<style type="text/css">
	.st0{fill-rule:evenodd;clip-rule:evenodd;fill:#242322;}
</style>
<path class="st0" d="M7.4,7.8c1.4,1.1,1.9,1,4.5,0.9l24.6-1.5c0.5,0,0.1-0.5-0.1-0.6l-4.1-3c-0.8-0.6-1.8-1.3-3.8-1.1L4.7,4.3
	C3.8,4.4,3.6,4.8,4,5.1L7.4,7.8z M8.9,13.6v25.9c0,1.4,0.7,1.9,2.3,1.8l27-1.6c1.6-0.1,1.7-1,1.7-2.2V11.8c0-1.1-0.4-1.7-1.4-1.6
	l-28.2,1.6C9.2,11.9,8.9,12.4,8.9,13.6L8.9,13.6z M35.5,14.9c0.2,0.8,0,1.6-0.8,1.7l-1.3,0.3V36c-1.1,0.6-2.2,1-3,1
	c-1.4,0-1.7-0.4-2.8-1.7l-8.5-13.4v12.9l2.7,0.6c0,0,0,1.6-2.2,1.6l-6,0.3c-0.2-0.3,0-1.2,0.6-1.4l1.6-0.4V18.3l-2.2-0.2
	c-0.2-0.8,0.3-1.9,1.5-2l6.4-0.4l8.9,13.5v-12L28.2,17c-0.2-1,0.5-1.7,1.4-1.7L35.5,14.9z M2.7,1.9l24.8-1.8c3-0.3,3.8-0.1,5.7,1.3
	L41.1,7c1.3,1,1.7,1.2,1.7,2.3v30.5c0,1.9-0.7,3-3.1,3.2l-28.8,1.7c-1.8,0.1-2.7-0.2-3.7-1.4l-5.8-7.6C0.4,34.3,0,33.3,0,32V5
	C0,3.4,0.7,2.1,2.7,1.9z"/>
</svg>
