<svg fill="none" xmlns="http://www.w3.org/2000/svg" viewBox="0 0 145 76">
  <g clip-path="url(#a)" fill-rule="evenodd" clip-rule="evenodd">
    <path d="M142.977 5.655a127.41 127.41 0 0 0-70.795.3 127.41 127.41 0 0 0-70.8-.3 1.444 1.444 0 0 0-1.056 1.39v66.63a1.44 1.44 0 0 0 1.827 1.385 127.346 127.346 0 0 1 70.024.508 127.334 127.334 0 0 1 70.023-.508 1.443 1.443 0 0 0 1.828-1.384V7.045a1.443 1.443 0 0 0-1.051-1.39Z" fill="currentColor"/>
    <path d="M74.738 16.782a96.965 96.965 0 0 1 3.712-1.043v41.366c-1.49.392-2.233.6-3.712 1.043V16.782Zm8.477 12.086c0-5.042 3.028-7.045 6.262-7.569 3.234-.524 6.305.49 6.305 5.532v21.076c0 5.04-3.07 6.7-6.305 7.223-3.235.523-6.262-.145-6.262-5.186V28.868Zm8.768-1.569c0-2.43-.98-3.21-2.506-2.963-1.526.247-2.5 1.344-2.5 3.773v21.076c0 2.43.973 3.156 2.5 2.908 1.527-.248 2.506-1.29 2.506-3.718V27.299Zm17.34-7.128c1.43.015 2.144.033 3.573.092v35.183c0 2.37-1.635 4.365-5.3 4.381-2.65.012-7.206.255-7.206.255v-3.17s5.432-.135 6.725-.146a1.811 1.811 0 0 0 1.893-1.255 1.8 1.8 0 0 0 .068-.808v-3.121h-.123a5.369 5.369 0 0 1-4.006 2.044c-2.341.064-4.741-1.293-4.741-5.484v-22.85c0-2.915 1.722-5.368 4.8-5.45a4.877 4.877 0 0 1 4.19 2.515h.124V20.17h.003Zm-.247 5.707a2.598 2.598 0 0 0-.837-1.999 2.593 2.593 0 0 0-2.063-.662c-1.355.023-2.156 1.088-2.156 3.336V47.64a2.306 2.306 0 0 0 .597 1.803 2.319 2.319 0 0 0 1.744.75c2.034-.03 2.712-1.588 2.712-3.653V25.878h.003Zm-87.015.56c0-2.065-.552-2.671-1.776-2.5-1.285.178-2.078 1.157-2.078 3.04V49.51c0 1.7.488 2.407 1.9 2.21 1.412-.197 1.959-1.23 1.959-2.748v-5.345a91.852 91.852 0 0 1 3.805-.4v5.284c0 3.584-2.032 5.729-5.7 6.241-3.059.426-5.734-.573-5.734-4.034V28.241c0-5.042 3.041-6.963 6.285-7.4 3.305-.445 5.152 1.184 5.152 4.768v5.526a105.7 105.7 0 0 0-3.805.4v-5.1l-.008.003Zm17.106-.77c0-2-.678-2.82-2.219-2.83-2.157-.012-2.465 1.288-2.465 3.232v3.1a97.314 97.314 0 0 0-3.82.12V25.4c0-3.4 2.895-5.622 6.408-5.6 3.7.026 5.914 1.71 5.914 5.962v27.7a96.835 96.835 0 0 0-3.572-.151v-1.762h-.123a5.201 5.201 0 0 1-4.438 2.1c-2.958.035-4.558-1.982-4.558-5.323v-8.99c0-4.13 2.834-6.644 8.873-6.493V25.668Zm0 10.2c-1.972-.05-5.054.773-5.054 3.567v7.532c0 2.368.37 3.62 2.4 3.625 1.664 0 2.651-1.179 2.651-3.366V35.871l.003-.003Zm8.858-21c1.523.154 2.283.244 3.8.449v5.892c1.077.145 1.616.224 2.69.394v3.038c-1.074-.171-1.612-.25-2.69-.4v25.145a1.916 1.916 0 0 0 1.9 2.154c.318.048.477.073.794.123V54.7c-.732-.116-1.1-.171-1.833-.276-3.181-.453-4.658-2.086-4.658-4.637v-26a95.86 95.86 0 0 0-1.9-.178v-3.037c.762.065 1.143.1 1.9.178v-5.892l-.003.01ZM66.33 29.58c0-2-.659-2.98-2.166-3.351-2.109-.52-2.415.707-2.415 2.65v3.1a97.16 97.16 0 0 0-3.76-.777v-3.887c0-3.4 2.862-4.941 6.3-4.09 3.615.9 5.754 3.1 5.754 7.355v27.7a96.933 96.933 0 0 0-3.469-.993v-1.762l-.12-.032c-1.021 1-2.1 1.56-4.338 1.05-2.9-.66-4.488-3.055-4.488-6.395v-8.99c0-4.13 2.822-5.977 8.706-4.404V29.58h-.004Zm0 10.2c-1.921-.514-4.944-.417-4.944 2.377v7.532c0 2.368.366 3.707 2.356 4.19 1.629.4 2.588-.555 2.588-2.741V39.78Z" fill="#000"/>
    <path d="m118.748 10.515 1.3 6.312 2.614 1.3-2.614 1.3-1.3 6.313-1.3-6.313-2.614-1.3 2.614-1.3 1.3-6.312Zm3.915 28.16 1.1 5.326 2.206 1.1-2.206 1.1-1.1 5.327-1.1-5.327-2.2-1.1 2.2-1.1 1.1-5.327Zm5.573-25.26 2.5 12.124 5.021 2.494-5.021 2.494-2.5 12.125-2.5-12.125-5.02-2.494 5.02-2.494 2.5-12.125Z" fill="#000"/>
  </g>
  <defs>
    <clipPath id="a">
      <path fill="#fff" d="M0 0h145v76H0z"/>
    </clipPath>
  </defs>
</svg>

