<svg xmlns="http://www.w3.org/2000/svg" viewBox="0 0 500 500" xml:space="preserve">
  <path fill="currentColor" d="M242.9 466.7c-58-.6-112.3-23.8-152.8-65.3-40.6-41.4-62.5-96.2-61.9-154.2.6-58 23.8-112.3 65.3-152.8 41.5-40.6 96.2-62.5 154.2-61.9 58 .6 112.3 23.8 152.8 65.3C441.1 139.3 463 194 462.4 252c-.6 58-23.8 112.3-65.3 152.8-41.4 40.6-96.2 62.6-154.2 61.9zM247.2 83c-91.9-1-167.4 72.9-168.4 164.8s72.9 167.4 164.8 168.4S411 343.3 412 251.4C413 159.6 339 84 247.2 83z"/>
  <path fill="currentColor" d="m358.7 240.1-166-95.8c-8.7-5-19.7 1.3-19.7 11.4v191.7c0 10.1 10.9 16.4 19.7 11.4l166-95.8c8.8-5.2 8.8-17.8 0-22.9z"/>
</svg>

