<svg fill="none" xmlns="http://www.w3.org/2000/svg" viewBox="0 0 104 103">
  <g clip-path="url(#a)">
    <path d="M60.926 32.894a9.678 9.678 0 0 0-1.63 5.373l-.058-.026a9.731 9.731 0 0 0 .735 3.733 9.66 9.66 0 0 0 2.11 3.147 9.773 9.773 0 0 0 3.162 2.106c1.182.48 2.45.72 3.727.72a9.748 9.748 0 0 0 5.374-1.626 9.679 9.679 0 0 0 1.467-14.893 9.732 9.732 0 0 0-4.955-2.654 9.668 9.668 0 0 0-5.59.56 9.702 9.702 0 0 0-4.342 3.56Zm18.74-1.786a12.88 12.88 0 0 1 2.167 7.16 12.884 12.884 0 0 1-3.778 9.093 12.936 12.936 0 0 1-9.096 3.787A12.92 12.92 0 0 1 57.047 43.2a12.894 12.894 0 0 1 2.79-14.053 12.99 12.99 0 0 1 6.6-3.534 12.839 12.839 0 0 1 7.449.747 12.858 12.858 0 0 1 5.781 4.747ZM33.028 78l-6.304-2.6a10.91 10.91 0 0 0 4.168 4.587 10.92 10.92 0 0 0 6 1.573 10.84 10.84 0 0 0 5.886-1.96 10.906 10.906 0 0 0 3.854-4.867c.785-1.96.983-4.106.57-6.173a10.867 10.867 0 0 0-2.898-5.494 10.857 10.857 0 0 0-5.426-3 10.769 10.769 0 0 0-6.187.44l6.5 2.694a7.983 7.983 0 0 1 4.334 4.347 8.007 8.007 0 0 1-.012 6.133 8.04 8.04 0 0 1-4.348 4.333 8.023 8.023 0 0 1-6.137-.013ZM51.984.214a51.214 51.214 0 0 0-34.758 13.6A51.228 51.228 0 0 0 .896 47.361l27.473 11.373a14.414 14.414 0 0 1 8.17-2.533h.81l12.213-17.693v-.267A19.346 19.346 0 0 1 61.55 20.427a19.286 19.286 0 0 1 11.168-1.066c3.746.747 7.186 2.6 9.884 5.306A19.339 19.339 0 0 1 79.638 54.4a19.353 19.353 0 0 1-10.737 3.254h-.44L51.08 70.094v.68c.009 3.6-1.325 7.08-3.74 9.76a14.556 14.556 0 0 1-9.33 4.707 14.486 14.486 0 0 1-10.074-2.773 14.512 14.512 0 0 1-5.593-8.827l-19.64-8.12a51.245 51.245 0 0 0 14.75 23.88 51.304 51.304 0 0 0 25.11 12.533 51.254 51.254 0 0 0 27.947-2.573 51.315 51.315 0 0 0 22.407-16.894 51.283 51.283 0 0 0 5-53.76A51.335 51.335 0 0 0 79.01 7.962 51.34 51.34 0 0 0 52.019.28l-.035-.067Z" fill="currentColor"/>
  </g>
  <defs>
    <clipPath id="a">
      <path fill="#fff" d="M0 0h104v103H0z"/>
    </clipPath>
  </defs>
</svg>

