<svg version="1.1" id="Layer_3" xmlns="http://www.w3.org/2000/svg" x="0" y="0" viewBox="0 0 886.6 198.5" xml:space="preserve">
  <path fill="currentColor" d="M84.2 8.1L71.8 19.4 0 171.5l.7 17 21.7 4.4L54 166.4h73.4l28.6 25.1 22.4-9.2-.7-23.1-65.5-141.7L101.5 9zM463.4 8.1l-12.5 11.3-71.7 152.1.6 17 21.7 4.4 16.4-14.3 20.6-24.2 61.8-1.2 34.9 38.3 22.3-9.2-.7-23.1-65.5-141.7L480.7 9zM211.6 11.5l-5.8 9-4.8 157.4 6.5 15.9 31.3-3.6 4-34.7 34.4 16.4 9.4-2.7 24-29.6 11.1 58.9L351 195l7.2-9.2-2.8-175.6L343.2 3l-30.5 2.5-33.9 67.2-24.5-52.6zM577.2 11.1L576 22.8l1.8 151.4 5.1 23.3s32.5-5.1 41.1-9l7.6-43.2 26.8 19.6 15 23.3s32.5 3.9 38.8 2.3l6.2-184.8L694.8 0l-24 1.4-1.8 47.1-55.2-38.8-36.6 1.4zM883.2 14.3s-20.3-4.4-119.8-4.2l-15 11.8-3.2 41.1 2.3 111.9 18.2 12.9 97.4 3.9 15-7.4 6-9.9 2.5-154.8-3.4-5.3zM834.7 129l-10.2 8.8h-26.8l-1.4-2.1 2.1-59.5 2.8-7.2 33.9-1.2-.4 61.2z"/>
</svg>

