<svg xmlns="http://www.w3.org/2000/svg" viewBox="0 0 42.2 42.2">
  <path d="M21.1 0C9.5 0 0 9.5 0 21.1s9.5 21.1 21.1 21.1c11.6 0 21.1-9.5 21.1-21.1S32.7 0 21.1 0zm4.8 10.9c-1.6.2-3.2.3-4.8.3-1.7 0-3.3-.1-4.8-.3C17.5 6.5 19.5 4 21.1 4s3.5 2.5 4.8 6.9zm2.2-5.4c1.9.8 3.6 2 5 3.4-1 .5-2 .9-3.2 1.2-.5-1.7-1.1-3.2-1.8-4.6zM14.9 19.1c.1-1.5.2-2.9.4-4.2 1.8.3 3.7.4 5.7.4s3.9-.2 5.7-.4c.2 1.3.4 2.7.4 4.2H14.9zm12.3 4c-.1 1.5-.2 2.9-.4 4.2-1.8-.3-3.8-.4-5.7-.4-2 0-3.9.2-5.7.4-.2-1.3-.4-2.7-.4-4.2h12.2zm-14.9-13c-1.2-.3-2.3-.7-3.2-1.2 1.4-1.4 3.1-2.6 5-3.4-.7 1.4-1.3 2.9-1.8 4.6zm-.9 3.9c-.3 1.6-.4 3.3-.5 5H4.1c.3-2.5 1.1-4.9 2.4-6.9 1.5.8 3.1 1.4 4.9 1.9zm-.5 9.1c.1 1.8.2 3.5.5 5-1.8.5-3.4 1.2-4.8 1.9-1.3-2.1-2.1-4.4-2.4-6.9h6.7zm1.4 8.9c.5 1.7 1.1 3.3 1.8 4.6-1.9-.8-3.6-2-5-3.4.9-.4 2-.8 3.2-1.2zm3.9-.8c1.6-.2 3.2-.3 4.8-.3 1.7 0 3.3.1 4.8.3-1.3 4.4-3.3 6.9-4.8 6.9s-3.5-2.5-4.8-6.9zm13.7.8c1.2.3 2.2.7 3.2 1.2-1.4 1.4-3.1 2.6-5 3.4.7-1.3 1.3-2.8 1.8-4.6zm.8-3.9c.3-1.6.4-3.3.5-5H38c-.3 2.5-1.1 4.9-2.4 6.9-1.4-.7-3.1-1.4-4.9-1.9zm.5-9c-.1-1.8-.2-3.5-.5-5 1.8-.5 3.5-1.1 4.9-1.9 1.3 2.1 2.1 4.4 2.4 6.9h-6.8z" fill="currentColor"/>
</svg>

