<svg fill="none" xmlns="http://www.w3.org/2000/svg" viewBox="0 0 122 168">
  <path d="M36 166l10-.5-3.5-7 5-10.5 7 6.5L58 143l5-10.5 9 10 4 6 4.5-.5 3-4.5L89 156l-2.5 9 8.5 1.5 3.5-11.5-1-3 13.5-38 7-12 3-40-6.5-5.5-4-.5-5.5 20.5-3-5.5 4-19-.5-26-9-6H95l-3 1-4.5 21L86 61.5l-7.5-2v-43L76 2 69 .5h-2L58.5 4 56 35.5l1 22-6.5 1.5-8-21L45 13l-7-2.5-7 .5-9 28 5.5 31.06V91l1 5.5-5.5-2-6.5-18-9-.5-3 1-3 2L7 113.5l29 29-2.5 17.5 2 2 .5 4z" fill="#252323" stroke="#D1D1D1"/>
  <path d="M42.5 93.5l-4 8L42 108l4.5 5 14 9 20-1.5 18-17-.5-3.5-12.5-11-10-4L58 83.5l-15.5 10z" fill="#fff"/>
  <ellipse cx="68.5" cy="102.5" rx="12.5" ry="11.5" fill="#252323"/>
</svg>
