{
  "asset": {
    "generator": "Khronos glTF Blender I/O v1.5.17",
    "version": "2.0"
  },
  "extensionsUsed": ["KHR_materials_unlit"],
  "scene": 0,
  "scenes": [
    {
      "name": "Scene",
      "nodes": [0, 1, 2, 3]
    }
  ],
  "nodes": [
    {
      "mesh": 0,
      "name": "eye",
      "translation": [-0.05345083400607109, 2.4999709129333496, 0]
    },
    {
      "mesh": 1,
      "name": "Hand",
      "translation": [0, 2.4610702991485596, 0]
    },
    {
      "mesh": 2,
      "name": "Pupil",
      "rotation": [0.7071068286895752, 0, 0, 0.7071068286895752],
      "scale": [1.281103491783142, 1.151779294013977, 1.151779294013977],
      "translation": [
        0.018443431705236435,
        2.479970932006836,
        0.04259029030799866
      ]
    },
    {
      "mesh": 3,
      "name": "Text",
      "translation": [-0.05345083400607109, 2.4999709129333496, 0]
    }
  ],
  "materials": [
    {
      "doubleSided": true,
      "extensions": {
        "KHR_materials_unlit": {}
      },
      "name": "M1",
      "pbrMetallicRoughness": {
        "baseColorTexture": {
          "index": 0
        },
        "metallicFactor": 0,
        "roughnessFactor": 0.9
      }
    }
  ],
  "meshes": [
    {
      "name": "Plane",
      "primitives": [
        {
          "attributes": {
            "POSITION": 0,
            "NORMAL": 1,
            "TEXCOORD_0": 2
          },
          "indices": 3,
          "material": 0
        }
      ]
    },
    {
      "name": "Cube",
      "primitives": [
        {
          "attributes": {
            "POSITION": 4,
            "NORMAL": 5,
            "TEXCOORD_0": 6
          },
          "indices": 7,
          "material": 0
        }
      ]
    },
    {
      "name": "Circle",
      "primitives": [
        {
          "attributes": {
            "POSITION": 8,
            "NORMAL": 9,
            "TEXCOORD_0": 10
          },
          "indices": 11,
          "material": 0
        }
      ]
    },
    {
      "name": "Cube.001",
      "primitives": [
        {
          "attributes": {
            "POSITION": 12,
            "NORMAL": 13,
            "TEXCOORD_0": 14
          },
          "indices": 15,
          "material": 0
        }
      ]
    }
  ],
  "textures": [
    {
      "sampler": 0,
      "source": 0
    }
  ],
  "images": [
    {
      "bufferView": 4,
      "mimeType": "image/png",
      "name": "T1"
    }
  ],
  "accessors": [
    {
      "bufferView": 0,
      "componentType": 5126,
      "count": 93,
      "max": [0.6861770153045654, 0.37812328338623047, 0.0072081005200743675],
      "min": [-0.5487481951713562, -0.41630053520202637, 0.007207996211946011],
      "type": "VEC3"
    },
    {
      "bufferView": 1,
      "componentType": 5126,
      "count": 93,
      "type": "VEC3"
    },
    {
      "bufferView": 2,
      "componentType": 5126,
      "count": 93,
      "type": "VEC2"
    },
    {
      "bufferView": 3,
      "componentType": 5123,
      "count": 135,
      "type": "SCALAR"
    },
    {
      "bufferView": 5,
      "componentType": 5126,
      "count": 135,
      "max": [1.0986504554748535, 2.1315414905548096, 6.170580491016153e-7],
      "min": [-1.370573878288269, -1.2884831428527832, 1.5754746129914565e-7],
      "type": "VEC3"
    },
    {
      "bufferView": 6,
      "componentType": 5126,
      "count": 135,
      "type": "VEC3"
    },
    {
      "bufferView": 7,
      "componentType": 5126,
      "count": 135,
      "type": "VEC2"
    },
    {
      "bufferView": 8,
      "componentType": 5123,
      "count": 159,
      "type": "SCALAR"
    },
    {
      "bufferView": 9,
      "componentType": 5126,
      "count": 32,
      "max": [0.19999998807907104, 0, 0.19999998807907104],
      "min": [-0.19999998807907104, 0, -0.19999998807907104],
      "type": "VEC3"
    },
    {
      "bufferView": 10,
      "componentType": 5126,
      "count": 32,
      "type": "VEC3"
    },
    {
      "bufferView": 11,
      "componentType": 5126,
      "count": 32,
      "type": "VEC2"
    },
    {
      "bufferView": 12,
      "componentType": 5123,
      "count": 90,
      "type": "SCALAR"
    },
    {
      "bufferView": 13,
      "componentType": 5126,
      "count": 142,
      "max": [1.1469060182571411, -1.4068169593811035, -9.002405931823887e-8],
      "min": [-1.1886066198349, -1.9311567544937134, -2.599904291855637e-7],
      "type": "VEC3"
    },
    {
      "bufferView": 14,
      "componentType": 5126,
      "count": 142,
      "type": "VEC3"
    },
    {
      "bufferView": 15,
      "componentType": 5126,
      "count": 142,
      "type": "VEC2"
    },
    {
      "bufferView": 16,
      "componentType": 5123,
      "count": 216,
      "type": "SCALAR"
    }
  ],
  "bufferViews": [
    {
      "buffer": 0,
      "byteLength": 1116,
      "byteOffset": 0
    },
    {
      "buffer": 0,
      "byteLength": 1116,
      "byteOffset": 1116
    },
    {
      "buffer": 0,
      "byteLength": 744,
      "byteOffset": 2232
    },
    {
      "buffer": 0,
      "byteLength": 270,
      "byteOffset": 2976
    },
    {
      "buffer": 0,
      "byteLength": 1428,
      "byteOffset": 3248
    },
    {
      "buffer": 0,
      "byteLength": 1620,
      "byteOffset": 4676
    },
    {
      "buffer": 0,
      "byteLength": 1620,
      "byteOffset": 6296
    },
    {
      "buffer": 0,
      "byteLength": 1080,
      "byteOffset": 7916
    },
    {
      "buffer": 0,
      "byteLength": 318,
      "byteOffset": 8996
    },
    {
      "buffer": 0,
      "byteLength": 384,
      "byteOffset": 9316
    },
    {
      "buffer": 0,
      "byteLength": 384,
      "byteOffset": 9700
    },
    {
      "buffer": 0,
      "byteLength": 256,
      "byteOffset": 10084
    },
    {
      "buffer": 0,
      "byteLength": 180,
      "byteOffset": 10340
    },
    {
      "buffer": 0,
      "byteLength": 1704,
      "byteOffset": 10520
    },
    {
      "buffer": 0,
      "byteLength": 1704,
      "byteOffset": 12224
    },
    {
      "buffer": 0,
      "byteLength": 1136,
      "byteOffset": 13928
    },
    {
      "buffer": 0,
      "byteLength": 432,
      "byteOffset": 15064
    }
  ],
  "samplers": [
    {
      "magFilter": 9728,
      "minFilter": 9984
    }
  ],
  "buffers": [
    {
      "byteLength": 15496,
      "uri": "data:application/octet-stream;base64,"
    }
  ]
}
